<?xml version="1.0" encoding="UTF-8"?><svg id="Layer_2" xmlns="http://www.w3.org/2000/svg" viewBox="0 0 554.2035 60.861"><g id="Components"><g id="e86f93c4-19b8-4568-8af7-d7773d06ed2b_1"><path d="M74.5346,50.696c.6091-1.3104.7478-2.6564,1.2935-3.9339.0716-1.4714.8379-2.7921.833-4.2585-.0018-.3929.5209-.5916.9804-.4628,2.8766.7852,5.4187,2.63,8.1991,3.5662,3.6649,1.9178,8.3589-.617,8.2292-4.8138-.161-3.7347-6.6084-4.5831-9.3247-6.3769-3.148-.7149-5.1758-2.8079-7.352-4.7483-.9576-3.9221-1.826-8.2942-.772-12.2403,1.5442-6.5277,6.4656-9.6307,12.8544-10.5931,4.6456-.844,9.2187.3311,13.6886,1.1859,1.3037.6205,5.1723.3747,3.6785,2.9306-.6498,1.2463-2.4642,5.7062-2.5897,7.1469-.0475.4865-.3128,1.4116-.9104,1.2478-3.7363-1.2954-7.453-1.4412-11.2702-1.9825-5.959,1.1842-6.3611,8.5552-.8717,10.6098,4.7618,2.5326,13.5588,3.9418,13.5326,10.9427.6586.9138.0745,2.029.7322,2.8777.4321,5.9876-2.6242,13.5193-9.3673,14.3119-3.9689-.1792-8.7545.5889-12.5077-.5368-2.7972-.6267-7.5109-2.5754-9.0557-4.8727Z" style="fill:#0b7f76;"/><path d="M111.1282,34.6334c.0337-1.4028-.2884-18.0019.2482-18.7913.4125-1.2298-1.2241-8.8849,1.4045-8.5819.3949.1592,8.7877-.5076,8.5796.4218.7452,1.0579-.0089,2.2123.0128,3.2083.3296.5222.2664,1.0463.2683,1.5049.8651,9.6319-1.4536,20.0907,1.3648,29.2599,2.0674,6.5569,9.866.2321,9.1486-4.4903.8512-4.3777.9793-8.9766.9919-13.4915.555-1.7416-.0024-3.9186.6296-5.6983.0007-2.2133.0068-4.4891.3657-6.6799.3047-1.2547-.8299-4.1764.9636-4.1941,2.8286.7117,9.6384-1.8689,10.0904,1.9213-.3849,1.0548-.1115,1.6867.0114,2.6852.112.7564-.4538,1.2871-.3193,2.0959-.0386,3.4244.2155,7.0689-.3491,10.4119-.0709,3.7012.3431,9.5107-.6651,12.9656-.1249,10.4267-5.6889,17.6372-16.3576,18.0074-1.4264-.8512-3.4919.3329-4.9135-.7653-1.0324-.3763-2.1312-.3232-2.9504-1.1003-4.9044-1.9435-6.3136-7.9247-7.7122-12.3419,0-.0656-.066-.1302-.066-.1302.1114-1.1766-.5138-2.2067-.4077-3.3376.1716-.9817-.4498-1.8764-.3386-2.8796Z" style="fill:#0b7f76;"/><path d="M151.7071,48.082c-.1609-7.3759.9948-14.6764.9556-22.0024-.0036-.7199.3209-1.5072-.2706-2.0941-.1311-.1302-.0679-.4576-.0689-.6538.0565-1.6275-.2031-10.1778.2797-11.5245.1611-.9631-.1276-2.1949.1825-3.1427.3266-.3288.0643-.6552-.0687-.9822-.2651-.6534.1264-1.2445.7812-1.2468l7.6593-.0321c4.1151,1.0503,7.5599,16.1645,12.6336,15.0702,3.0077-4.7092,6.905-9.0406,9.172-14.1792-.121-1.3739,9.7507-.4015,10.4073-.6989,1.5147.0766.9113,1.9347.6009,2.8785.364,3.7317.0474,7.4613.7663,11.0612.0064,1.6923.1548,10.2863-.2795,11.6555-.1189,4.2979.2132,17.3323.4177,21.2759.3303,1.789-7.6462.6185-8.3767.9519-1.197-.1189-3.8305,1.3654-3.3429-.7722.4557-.6567.3217-1.3761.3189-2.0304l-.1066-25.5334c.0709-.6549-1.0642-.6776-1.5067-.3213-3.1016,3.8468-6.3556,8.7128-10.0974,12.0235-.4576.3293-.4566.3949-.8519-.1929-1.1111-1.2468-2.4713-2.4397-3.2239-3.9146-1.4306-.8414-2.0394-2.4541-2.8982-3.9166-4.6482-5.9878-2.2139,6.4807-2.7781,8.7849-.2703,2.7226-.3656,12.8039-.2608,15.7798.0016.458-.1295.524-.522.5259-1.5909.1296-5.1401-.1829-6.6138-.1694-.975.2366-2.7141.6063-3.21-.444.0153-1.3438-.1049-4.9377.302-6.1557Z" style="fill:#0b7f76;"/><path d="M202.8589,53.7605c.7115-3.434.226-7.1015.9378-10.6101,1.0439-12.3,1.0073-25.1181,2.5946-37.1979,2.9249.4693,6.8146-1.6286,9.2964-.04,4.6565,6.222,6.6208,13.6887,10.235,20.5158.9495.7598,2.6776-3.0877,3.258-3.5487,3.9632-4.9907,7.8311-9.9301,10.6042-15.7575,1.1704-.8154,2.8103.0974,4.0575-.6066,1.6811-.0373,3.3893-.3894,5.0403-.1517.9927.796,2.044-.371,3.1428-.0131.2855,11.5106-.7784,23.7279-.7692,35.1609-1.1857,14.0983,3.7367,10.6476-8.5309,11.1003-.9445-.3437-2.4711.1042-3.2758-.51.6071-7.3171-.4313-14.7552.3005-22.1307-.0014-.2618-.0024-.5237-.3279-.1293-1.5396-.332-2.1722,1.5839-3.0005,2.6314-2.8148,3.7728-5.5381,7.8085-8.6595,11.428-.1951.1974-.3262.2634-.5885.0681-3.2034-3.6566-5.5336-7.9408-8.0389-12.144-.8474-.5476-3.0957-6.3133-3.9435-3.9122,1.0054,8.2403-.4611,16.7104.1692,25.0096-.3813,2.0333-5.1319.6642-6.8028,1.469-1.7867.1348-3.7665-.3006-5.5008-.4354-.3265.1976-.2632-.1302-.1981-.1958Z" style="fill:#0b7f76;"/><path d="M258.4895,18.6321c.4041-2.0528-.4175-4.5285.3649-6.5489.3379-.8074-.2905-1.9189.3805-2.7507.2369-.8932-.607-2.9067.7733-3.0151.2626-.0013.5872-.3952.9165-.0037,1.0435.1682,2.0554-.0419,3.0767-.341,1.5327.208,5.1955-.4531,6.548.3002,2.5283-.1044,4.9826.524,7.5309.3619,1.0656-.2489,1.9047.4521,2.9465.3155,0-.0002,5.8922-.0252,5.8922-.0252,1.5083,2.0887-.4522,5.8777.1677,8.5097-.0232,1.3833-1.3463,1.9978-2.6114,1.7787-.7441-.4322-3.6608-.1971-4.5183-.243-2.8521,1.1375-5.7495-.4639-8.6443-.3567-2.3991-.1123-.8985,6.6995-1.277,7.8624.0882.6059.8742.7551,1.444.714,1.7143-.0212,7.2274-.1662,8.7736.2907,1.256.0459,4.158-.5015,4.0003,1.5544-.0268.9453.161,3.8899-.3076,4.7154.1779,1.4339.026,2.9301-1.7558,2.6257-1.5866-.2855-7.8384.5555-9.1678-.2889-.6597.0474-2.1761-.2687-2.2218.795-.0708,2.0748.1807,4.281-.1707,6.3516-.2166.5918-.4243,1.8567.2055,2.0941,3.9858-.9217,12.8728-.1713,16.8905-.0705,1.2902-.6456,1.3827,11.5438.3734,10.7358-.0007,0-27.4319.1146-27.4319.1146-.5236.0019-1.0482.0042-1.5728-.059-.9833-.4165-.6307-2.0627-.7312-2.8776.1299-3.953-.4625-13.6432.6473-17.2868-.0799-1.2374.1843-3.0115-.2782-4.1892-.4495-2.2048.3784-4.7485-.4228-6.8729.099-1.3758-.4354-2.9124.1802-4.1905Z" style="fill:#0b7f76;"/><path d="M292.5913,17.3108c-.3657-3.4755.1216-6.9151.2191-10.345.2999-1.4686,2.5575-.7394,3.5972-.8008,3.0113.7633,6.5113-.2009,9.4955.5495,1.0026.0244,6.6703.5754,7.4027,1.0169,1.157.0488,2.2918.4493,3.2767.9031.6457.2682,1.5266.2728,1.7728,1.0396.7359,1.6867,2.7874,1.4731,3.4182,3.3249.4259,1.0259,1.6496,3.0809,2.1768,3.9843,3.2268,5.4926-.0845,13.8889-4.835,17.6323-.7463.538-1.7848,1.2297-.909,2.1635,3.1008,5.2186,5.7218,11.8829,7.2102,17.3195-1.8537.5472-4.1974.3279-6.0894.3533-.9452-.2849-5.3488.8248-5.3062-.8941-1.4569-4.1821-2.829-8.4163-4.0469-12.6846-.219-.3987-.1905-1.4204-.8563-1.3059-.9163-.0166-1.9255.5703-2.8127.6666-.7396.1356-2.4485-.2942-2.222.9261.9428,2.5399-.5857,5.6424.2956,8.1824-.0415,7.9761,1.5794,4.0841-9.6032,4.8849-2.0561,1.0878-1.8825-2.3-1.4554-3.5292-.0003-.0002-.0541-12.9634-.0541-12.9634-.6286-3.0131-.2404-6.2789-.4322-9.36-.0253-3.0734-.8495-6.5631-.0396-9.6241-.3944-.3916.3236-.918-.2029-1.4398ZM302.8754,18.4463c.4992,1.7198.2407,3.638.2849,5.4331l.0651-.0005c.3313,2.6498-1.4153,6.6117,3.1645,5.1589,5.6946-.4437,7.7294-3.9357,6.3771-9.2579-1.0341-2.8274-3.1332-4.0126-6.0425-4.4922-3.8-.8622-4.0807-.6188-3.8492,3.1586Z" style="fill:#0b7f76;"/><path d="M344.5082,49.5676c.6091-1.3102.7478-2.6567,1.2935-3.9339.0717-1.4715.8379-2.7924.833-4.259-.0018-.3929.5209-.5911.9804-.4623,2.8769.7851,5.4186,2.6298,8.1991,3.5662,3.6647,1.9173,8.3588-.6171,8.2292-4.8138-.1606-3.7348-6.6084-4.5834-9.3247-6.3769-3.148-.7152-5.1758-2.8078-7.352-4.7483-.9575-3.9219-1.8261-8.2942-.772-12.2403,1.5439-6.5275,6.4655-9.6309,12.8544-10.5931,4.6455-.8446,9.2187.3317,13.6886,1.1854,1.3036.6212,5.1723.3748,3.6785,2.9311-.6498,1.2463-2.4642,5.7062-2.5897,7.1469-.0476.4868-.3126,1.411-.9104,1.2478-3.7363-1.2954-7.453-1.4416-11.2702-1.9825-5.959,1.1842-6.3613,8.5546-.8717,10.6098,4.762,2.5328,13.5587,3.9414,13.5326,10.9427.6586.9138.0745,2.029.7322,2.8777.4315,5.9876-2.6241,13.5193-9.3673,14.3119-3.9689-.1791-8.7544.5886-12.5077-.5368-2.7973-.6265-7.5102-2.5758-9.0557-4.8727Z" style="fill:#67bf90;"/><path d="M379.7432,52.9557c5.4192-15.4069,9.1188-33.0246,15.58-47.3999,3.1448.1016,9.648-1.6247,12.7034.4694,4.0992,13.015,7.4955,26.894,10.97,40.0232.728,1.4955,1.2404,4.389,2.4493,6.2747.3436.6991-.9904.8433-1.5019,1.0535-.7688.1482-6.1736.0566-7.0696.0953-1.0257-.1259-1.7376.8084-2.6844.0113-1.2445.0708-1.4445-.9105-1.5134-1.7615-.1337-1.5451-1.1607-7.9944-2.9141-7.8444-.0003.0002-11.7846.0492-11.7846.0492-2.4924.3719-3.1258,6.227-4.287,8.3977-.1927.5255-.6485,1.2472-1.3023,1.2501-2.5275-.52-6.9781.9087-8.6453-.6185ZM398.1942,34.2848c6.2044-.124,8.1049,1.2311,5.67-5.9819-.2112-1.9059-.6178-4.0117-1.0724-5.8222.1274-1.0482-.6623-1.9615-.7972-3.0084,0-.0656-.2632-.1302-.4595-.1944-1.6672.4535-1.0625,2.989-1.6194,4.262.4655,1.7009-3.9482,10.7542-1.7215,10.7448Z" style="fill:#67bf90;"/><path d="M425.8274,51.8461c.5654-14.8236.5755-29.5711,1.4503-44.3289.1955-.4139-.0628-1.2504.1895-1.7035.7943-1.0007,5.137-.3645,6.2177-.5498,1.7086-.0978,2.3696,2.0513,3.4835,3.1279,3.8022,7.3031,8.2136,14.7859,12.9221,21.6821,1.8891-.641.366-4.9047.8895-6.6815-.26-.9488.2956-1.8038.3156-2.7515-.1126-.769.2536-11.3223-.3116-11.6522-.2302-3.3074-.364-3.495,3.128-3.8096,1.8714.5219,7.7067-1.1423,8.1217.8816-.6643.5443-.1737,4.9755-.3043,5.763.2444,1.0071-.5008,1.7546-.316,2.7514-.1159,1.1114.3136,6.8932-.2281,7.7917-.2014,3.6575.2345,19.3386-.3004,22.4581.6307,1.0693.1702,2.1984.3419,3.3374-.0673,1.5651,1.0966,4.2979-.4349,5.4362-1.3925.1082-3.2386-.3012-4.5157.3461-2.0086.0568-4.4803.3248-6.0941-.9567-3.8907-6.8079-7.3826-14.9024-12.2003-21.2924-.0277-.4585-1.5346-1.4583-1.4435-.78-.2189,2.8417-1.1163,5.8558-.3566,8.6436-.0882,1.4861.2125,2.7383.4107,4.1887.1246,1.0153-.3087,4.4063.3486,5.2364-.1245.1836.3114,4.8203-.2421,4.7146-1.035.1425-2.2148-.2054-3.209-.3138-1.0389.3449-3.3335.3892-4.4515.3458-1.0478-.0024-2.2987.6892-3.4022.2106l-.3302-.784c.4567-.3293.1274-.9171.3217-1.311Z" style="fill:#67bf90;"/><path d="M469.9784,39.794c.4448-3.8489-.6425-2.8382.3425-6.62-.3228-2.975-.4948-6.7688-.4311-9.8161-.0264-.887,1.3816-.4614,1.9623-.5319,3.108-.5296,6.146-.05,9.2935-.0413,1.7163.123.4795,2.3932.6038,3.4016-.0114,8.3421-.686,7.9788-.1189,16.5881.1101.521-.3625,1.4888-.0575,1.9644.3292.3259-.0633.6552.0688.9161l.1991.5236c-.4184.8886.41,1.8114-.1847,2.7498.5916,2.6994,1.0287,6.5594-3.1221,5.0546-1.9329-.3571-6.3794.4661-8.185-.4894-.7517-3.2575.323-6.999-.5982-10.2807l-.0651.0005c.1281-2.2147-.3608-1.303.2925-3.4194Z" style="fill:#67bf90;"/><path d="M486.166,16.2399c.9551-10.3623-3.8303-11.0794,8.0735-10.6398v.0656c3.2328-.0161,6.2363-.2436,9.3642.2884,1.6329.1864,7.7807-.4644,9.1671.289,2.15-.0298,4.7632-.5115,3.3503,2.6703-.11,2.6168-.5831,5.3618-.752,8.0558.2499.6471-5.3143.228-5.4985.3502-1.122-.1499-1.5606.3612-1.6292,1.4474-.9386,2.1652.3201,4.7828-.5607,6.942-.2986,3.5247-.4308,7.117-.414,10.8045.0045.9817.3357,1.9625-.3153,2.9475-.1352.9527.2044,2.043-.3142,3.0781-.0396,3.1288.149,6.6027-.5481,9.6265-3.5906-.0602-7.3446.979-10.8672.3074-1.5766-.7654-.1128-2.6092-.3445-3.9266-.1023-3.7308-.1123-10.79.661-14.2756-.0347-1.5786-.0941-5.0214.3008-6.4827-.0337-1.8611.1864-6.9595.6847-8.5794.0059-2.5891.4281-2.7542-2.4344-2.5435-1.0799-.0381-8.4837,1.3829-7.9233-.4252Z" style="fill:#67bf90;"/><path d="M481.8142,16.656c-1.8165-.5713-12.8966,1.6271-12.1791-.4156.9578-10.3416-3.836-11.0857,8.0736-10.6403v.0656c1.7681-.0071,2.4034-.0797,4.1055-.0217v11.012Z" style="fill:#67bf90;"/><path d="M518.1997,5.5656c2.92.0094,6.7722-.6073,9.7529-.4334q.4586-.002.6567.5207c1.6459,4.3383,3.1918,8.6526,4.7033,13.009,1.4603,2.7187,2.5851-1.2687,3.3285-2.5021,7.0188-14.1904.7873-9.9343,15.6659-11.1293,3.4523-1.3373,1.2187,1.2912.7981,3.0081-.2458.8799-1.9652,2.5548-2.4077,3.4141-2.7284,4.6294-4.6767,9.4781-7.3404,14.0415-.4335,2.5222-3.0309,5.0663-2.9123,7.8033.2113,4.5592-.1359,9.2411.2533,13.8133.1965,1.3636.7835,5.017-.499,5.6985-1.9541-.1645-8.084-.4662-10.2151-.2846-.9718.1655-2.239.9251-2.2284-.7117.2956-4.0492-.6577-9.6064.2708-13.4225.1381-1.4344-.3626-3.3956.3076-4.7151l-.0113-2.6843c-1.2134-2.8835-2.8679-5.5612-3.6372-8.5618-.8348-1.9035-1.5589-4.0345-2.1191-6.0143-1.0848-3.54-3.155-7.6424-4.3665-10.8493Z" style="fill:#67bf90;"/><path d="M58.7499,10.2795c0-3.4699-2.814-6.2832-6.2836-6.2832H6.2829C2.8134,3.9962,0,6.8095,0,10.2795v8.4505h58.7499v-8.4505Z" style="fill:#f8c554;"/><path d="M0,18.73v35.8474c0,3.4702,2.8134,6.2836,6.2829,6.2836h46.1834c3.4696,0,6.2836-2.8134,6.2836-6.2836V18.73H0Z" style="fill:#f4f2ed;"/><path d="M17.5873,10.8245c0,.7706-.808,1.3951-1.8067,1.3951h0c-.9973,0-1.806-.6245-1.806-1.3951V1.3937c0-.7699.8088-1.3937,1.806-1.3937h0c.9987,0,1.8067.6238,1.8067,1.3937v9.4308Z" style="fill:#f26722;"/><path d="M44.7747,10.8245c0,.7706-.8088,1.3951-1.806,1.3951h0c-.9987,0-1.8068-.6245-1.8068-1.3951V1.3937c0-.7699.808-1.3937,1.8068-1.3937h0c.9972,0,1.806.6238,1.806,1.3937v9.4308Z" style="fill:#f26722;"/><path d="M13.9869,45.6401c.1527-.3089.182-.6475.3351-.9254.1527-.3089.0586-.6471.2734-.9254-.0324-.3382.1513-.6471.2117-.9556.0595-.3697.1815-.6782.1802-1.0474-.0009-.1851.245-.2783.4611-.2179.2157.0608,1.3262.4256,1.5112.5481s.2787.3684.5255.3981c.2463-.0009.4008.1522.6165.213.2161.0608.4012.2139.5867.2747.2463.0297.4008.1833.6169.2437.3697.091.7097.336,1.11.2725.2459-.0315.4926-.0018.739-.0027.3697-.0018.7075-.1265.9529-.4043.3067-.3404.5823-.7416.8881-1.1127.1229-.1545.2454-.3706.1829-.6169-.032-.1229-.0324-.2769-.0018-.4003.1513-.5859-.2197-.8921-.6515-1.1677-.6795-.3666-1.3896-.7638-2.0993-1.0998-.4935-.2441-.9871-.427-1.4811-.6711-.0617-.0306-.1229-.0306-.1545-.0612-.8632-.2117-1.264-.395-1.8206-.8854l-.5867-.4287c-.1855-.1842-.3715-.3679-.5876-.4904-.1851-.1225-.4318-.2445-.4634-.4292-.0626-.2769-.2485-.4918-.2188-.7687-.0013-.3391-.126-.6156-.158-.8925-.032-.308.028-.6467-.0652-.9236-.2494-.7692-.0683-1.5396-.1327-2.3092-.0324-.308.1513-.5859.2117-.8632.1221-.3391.3364-.648.3963-.9875.182-.7088.9152-2.1286,1.6524-2.4703.3386-.1553.6764-.3417.9835-.5894.5224-.3102,1.568-.6533,2.1526-.7172.2774-.032.585-.1567.8615-.2193.154-.0315.3076-.0936.4922-.0945.5854-.0027,1.1704-.0359,1.7558-.0075.308-.0009.6768-.095.9551.1194.1234.0919.3391.0604.4931.0288.3999-.0941.739.0586,1.0479.1802.2468.0914.4935.1829.7399.1509.3386-.032.6169.213.9556.1806.1229.0612,1.11.3036,1.3257.3338.154-.0009.2774.091.4008.1522.0311.0306.1238.1225.1238.1842.032.2463.0018.462-.1198.7088-.3058.5863-1.1593,2.6843-1.2183,3.362.0009.1846-.091.3085-.1518.4625-.0612.1238-.1842.1549-.2765.1247-.2161-.0608-.4625-.0599-.6169-.1824-.2472-.1837-.5237-.0595-.7092-.182-.2468-.1527-.4931-.1207-.7399-.1198-.2765.032-.4314-.1833-.7083-.1513-.2468.032-.4931-.0284-.7399-.1198s-.5548-.0284-.8317-.0581c-.2468.0009-.5539.0639-.8016-.0892-.0306-.0306-.1229-.0608-.154-.0302-.4607.1869-1.0146.2814-1.383.6529-.1229.1238-.7354.8344-.735.9884.032.2774-.1212.4931-.1509.7092-.0901.616.1278,1.1389.5299,1.5991.2166.2454.4638.4598.7115.7052.1855.1837.34.3679.6174.336.5255.4292,1.1415.4882,1.7278.7012.7399.2743,1.3568.4869,2.1912,1.0998.1234.0914.2472.2144.4017.2752.7403.3049,1.7291,1.1322,1.8867,1.9635.063.3688.1877.7381.1584,1.1078.3098.4301.0351.9547.3444,1.3537-.0595.5237.1278,1.0776-.1167,1.5711-.0612.1238-.0604.2774-.0288.4008.0941.4305-.1203.8011-.2725,1.2019-.2738.7097-.8544,1.8516-1.4376,2.347-.3067.2783-.7363.5574-1.1056.7439-.4611.2175-.9218.4656-1.4451.4678l-2.2484.0093c-.616.0027-1.2321.0359-1.8477.008-.308.0013-.616.0639-.8939-.0888s-.616.0333-.8939-.1811c-.8322-.0581-2.5911-.944-3.2399-1.434-.1545-.1225-.3391-.1833-.5246-.2752-.1851-.0914-.2778-.2139-.4327-.3675-.0617-.0612-.0928-.1536-.0626-.2153Z" style="fill:#0b7f76;"/><path d="M29.445,50.6362c.1527-.3089.182-.6475.3351-.9254.1527-.3089.0586-.6471.2734-.9254-.0324-.3382.1513-.6471.2117-.9556.0595-.3697.1815-.6782.1802-1.0479-.0009-.1846.245-.2778.4611-.2175.2157.0608,1.3262.4256,1.5112.5481s.2787.3684.5255.3981c.2463-.0009.4008.1522.6165.213.2161.0608.4012.2139.5867.2747.2463.0297.4008.1833.6169.2437.3697.091.7097.336,1.11.2725.2459-.0315.4926-.0018.739-.0031.3697-.0013.7075-.126.9529-.4043.3067-.34.5823-.7416.8881-1.1122.1229-.1545.2454-.3706.1829-.6169-.032-.1229-.0324-.2769-.0018-.4003.1513-.5859-.2197-.8921-.6515-1.1677-.6795-.3666-1.3896-.7638-2.0993-1.0998-.4935-.2441-.9871-.427-1.4811-.6711-.0617-.0306-.1229-.0306-.1545-.0612-.8632-.2117-1.264-.395-1.8206-.8854l-.5867-.4287c-.1855-.1842-.3715-.3679-.5876-.4904-.1851-.1225-.4318-.2445-.4634-.4292-.0626-.2769-.2485-.4918-.2188-.7692-.0013-.3386-.126-.6151-.158-.8921-.032-.308.028-.6467-.0652-.9236-.2494-.7692-.0683-1.5396-.1327-2.3092-.0324-.308.1513-.5859.2117-.8632.1221-.3395.3364-.6484.3963-.9875.182-.7088.9152-2.1286,1.6524-2.4703.3386-.1553.6764-.3417.9835-.5894.5224-.3102,1.568-.6533,2.1526-.7172.2774-.032.585-.1567.8615-.2193.154-.0315.3076-.0936.4922-.0945.5854-.0027,1.1704-.0359,1.7558-.0075.308-.0013.6768-.095.9551.1194.1234.0919.3391.0604.4931.0288.3999-.0941.739.0586,1.0479.1802.2468.0914.4935.1829.7399.1509.3386-.032.6169.213.9556.1806.1229.0612,1.11.3036,1.3257.3333.154-.0004.2774.0914.4008.1527.0311.0306.1238.1225.1238.1842.032.2463.0018.4616-.1198.7088-.3058.5863-1.1593,2.6843-1.2183,3.362.0009.1846-.091.3085-.1518.4625-.0612.1238-.1842.1549-.2765.1247-.2161-.0608-.4625-.0599-.6169-.1824-.2472-.1837-.5237-.0595-.7092-.182-.2468-.1527-.4931-.1212-.7399-.1198-.2765.032-.4314-.1833-.7083-.1513-.2468.032-.4931-.0284-.7399-.1198s-.5548-.0284-.8317-.0581c-.2468.0009-.5539.0639-.8016-.0892-.0306-.0306-.1229-.0608-.154-.0302-.4607.1869-1.0146.2814-1.383.6529-.1229.1234-.7354.8344-.735.9884.032.2769-.1212.4931-.1509.7092-.0901.616.1278,1.1389.5299,1.5991.2166.2454.4638.4598.7115.7052.1855.1837.34.3679.6174.336.5255.4292,1.1415.4882,1.7278.7012.7399.2743,1.3568.4869,2.1912,1.0994.1234.0919.2472.2148.4017.2756.7403.3049,1.7291,1.1322,1.8867,1.963.063.3693.1877.7385.1584,1.1082.3098.4301.0351.9547.3444,1.3537-.0595.5237.1278,1.0776-.1167,1.5711-.0612.1238-.0604.2774-.0288.4008.0941.4305-.1203.8011-.2725,1.2019-.2738.7097-.8544,1.8516-1.4376,2.347-.3067.2783-.7363.557-1.1056.7434-.4611.2179-.9218.466-1.4451.4682l-2.2484.0093c-.616.0027-1.2321.0359-1.8477.008-.308.0013-.616.0639-.8939-.0888s-.616.0333-.8939-.1811c-.8322-.0581-2.5911-.944-3.2399-1.434-.1545-.1225-.3391-.1833-.5246-.2752-.1851-.0914-.2778-.2144-.4327-.3675-.0617-.0612-.0928-.1536-.0626-.2153Z" style="fill:#67bf90;"/></g></g></svg>