<svg width="17" height="17" viewBox="0 0 17 17" fill="none" xmlns="http://www.w3.org/2000/svg">
<g clip-path="url(#clip0_1_1605)">
<path d="M8.33333 11.6061C7.41111 11.6061 6.625 11.2811 5.975 10.6311C5.325 9.98112 5 9.19501 5 8.27279C5 7.35056 5.325 6.56445 5.975 5.91445C6.625 5.26445 7.41111 4.93945 8.33333 4.93945C9.25556 4.93945 10.0417 5.26445 10.6917 5.91445C11.3417 6.56445 11.6667 7.35056 11.6667 8.27279C11.6667 9.19501 11.3417 9.98112 10.6917 10.6311C10.0417 11.2811 9.25556 11.6061 8.33333 11.6061ZM3.66667 8.93945H1V7.60612H3.66667V8.93945ZM15.6667 8.93945H13V7.60612H15.6667V8.93945ZM7.66667 3.60612V0.939453H9V3.60612H7.66667ZM7.66667 15.6061V12.9395H9V15.6061H7.66667ZM4.6 5.43945L2.91667 3.82279L3.86667 2.83945L5.46667 4.50612L4.6 5.43945ZM12.8 13.7061L11.1833 12.0228L12.0667 11.1061L13.75 12.7228L12.8 13.7061ZM11.1667 4.53945L12.7833 2.85612L13.7667 3.80612L12.1 5.40612L11.1667 4.53945ZM2.9 12.7395L4.58333 11.1228L5.5 12.0061L3.88333 13.6895L2.9 12.7395Z" fill="#000E14"/>
</g>
<defs>
<clipPath id="clip0_1_1605">
<rect width="16" height="16" fill="white" transform="translate(0.333252 0.272766)"/>
</clipPath>
</defs>
</svg>
