<svg width="18" height="19" viewBox="0 0 18 19" fill="none" xmlns="http://www.w3.org/2000/svg">
<path d="M11.2258 5.60825C11.5008 5.31718 11.4458 4.89322 11.1008 4.6591C10.7558 4.42498 10.2533 4.47349 9.97578 4.76456L9.00078 5.79386L8.02578 4.76456C7.75078 4.47349 7.24578 4.42709 6.90078 4.6591C6.55578 4.89111 6.50078 5.31718 6.77578 5.60825L7.97578 6.87378L2.10828 13.0622C1.90828 13.2732 1.80078 13.5326 1.80078 13.8005V14.2982C1.80078 14.8572 2.33828 15.3107 3.00078 15.3107H9.00078H15.0008C15.6633 15.3107 16.2008 14.8572 16.2008 14.2982V13.8005C16.2008 13.5326 16.0933 13.271 15.8933 13.0622L10.0258 6.87378L11.2258 5.60825ZM9.00078 13.9608H6.01328L9.00078 10.6641L11.9883 13.9608H9.00078Z" fill="#000E14"/>
</svg>
