<svg width="40" height="40" viewBox="0 0 40 40" fill="none" xmlns="http://www.w3.org/2000/svg">
<g clip-path="url(#clip0_73_1153)">
<path d="M20.75 19.925C21.475 19.125 22.0312 18.2125 22.4188 17.1875C22.8063 16.1625 23 15.1 23 14C23 12.9 22.8063 11.8375 22.4188 10.8125C22.0312 9.7875 21.475 8.875 20.75 8.075C22.25 8.275 23.5 8.9375 24.5 10.0625C25.5 11.1875 26 12.5 26 14C26 15.5 25.5 16.8125 24.5 17.9375C23.5 19.0625 22.25 19.725 20.75 19.925ZM29 32V27.5C29 26.6 28.8 25.7438 28.4 24.9313C28 24.1188 27.475 23.4 26.825 22.775C28.1 23.225 29.2813 23.8063 30.3688 24.5188C31.4563 25.2313 32 26.225 32 27.5V32H29ZM32 21.5V18.5H29V15.5H32V12.5H35V15.5H38V18.5H35V21.5H32ZM14 20C12.35 20 10.9375 19.4125 9.7625 18.2375C8.5875 17.0625 8 15.65 8 14C8 12.35 8.5875 10.9375 9.7625 9.7625C10.9375 8.5875 12.35 8 14 8C15.65 8 17.0625 8.5875 18.2375 9.7625C19.4125 10.9375 20 12.35 20 14C20 15.65 19.4125 17.0625 18.2375 18.2375C17.0625 19.4125 15.65 20 14 20ZM2 32V27.8C2 26.95 2.21875 26.1688 2.65625 25.4563C3.09375 24.7438 3.675 24.2 4.4 23.825C5.95 23.05 7.525 22.4688 9.125 22.0813C10.725 21.6938 12.35 21.5 14 21.5C15.65 21.5 17.275 21.6938 18.875 22.0813C20.475 22.4688 22.05 23.05 23.6 23.825C24.325 24.2 24.9062 24.7438 25.3438 25.4563C25.7813 26.1688 26 26.95 26 27.8V32H2Z" fill="#F5F1ED"/>
</g>
<defs>
<clipPath id="clip0_73_1153">
<rect width="36" height="36" fill="white" transform="translate(2 2)"/>
</clipPath>
</defs>
</svg>
