<svg width="40" height="40" viewBox="0 0 40 40" fill="none" xmlns="http://www.w3.org/2000/svg">
<g clip-path="url(#clip0_73_1145)">
<path d="M14.2857 3C15.1467 3 15.8393 3.73145 15.8393 4.64062V7.375H25.1607V4.64062C25.1607 3.73145 25.8533 3 26.7143 3C27.5752 3 28.2679 3.73145 28.2679 4.64062V7.375H30.8571C33.1422 7.375 35 9.33691 35 11.75V12.8438V16.125V33.625C35 36.0381 33.1422 38 30.8571 38H10.1429C7.85781 38 6 36.0381 6 33.625V16.125V12.8438V11.75C6 9.33691 7.85781 7.375 10.1429 7.375H12.7321V4.64062C12.7321 3.73145 13.4248 3 14.2857 3ZM31.8929 16.125H9.10714V33.625C9.10714 34.2266 9.57321 34.7188 10.1429 34.7188H30.8571C31.4268 34.7188 31.8929 34.2266 31.8929 33.625V16.125ZM25.1607 27.0625H15.8393C14.9783 27.0625 14.2857 26.3311 14.2857 25.4219C14.2857 24.5127 14.9783 23.7812 15.8393 23.7812H25.1607C26.0217 23.7812 26.7143 24.5127 26.7143 25.4219C26.7143 26.3311 26.0217 27.0625 25.1607 27.0625Z" fill="#F5F1ED"/>
</g>
<defs>
<clipPath id="clip0_73_1145">
<rect width="29" height="35" fill="white" transform="translate(6 3)"/>
</clipPath>
</defs>
</svg>
