<svg width="48" height="48" viewBox="0 0 48 48" fill="none" xmlns="http://www.w3.org/2000/svg">
<path d="M28.4444 34.8C27.2 34.8 26.1481 34.365 25.2889 33.495C24.4296 32.625 24 31.56 24 30.3C24 29.04 24.4296 27.975 25.2889 27.105C26.1481 26.235 27.2 25.8 28.4444 25.8C29.6889 25.8 30.7407 26.235 31.6 27.105C32.4593 27.975 32.8889 29.04 32.8889 30.3C32.8889 31.56 32.4593 32.625 31.6 33.495C30.7407 34.365 29.6889 34.8 28.4444 34.8ZM11.5556 42C10.5778 42 9.74074 41.6475 9.04444 40.9425C8.34815 40.2375 8 39.39 8 38.4V13.2C8 12.21 8.34815 11.3625 9.04444 10.6575C9.74074 9.9525 10.5778 9.6 11.5556 9.6H13.3333V6H16.8889V9.6H31.1111V6H34.6667V9.6H36.4444C37.4222 9.6 38.2593 9.9525 38.9556 10.6575C39.6519 11.3625 40 12.21 40 13.2V38.4C40 39.39 39.6519 40.2375 38.9556 40.9425C38.2593 41.6475 37.4222 42 36.4444 42H11.5556ZM11.5556 38.4H36.4444V20.4H11.5556V38.4Z" fill="#03A3C3"/>
</svg>
