<svg width="40" height="40" viewBox="0 0 40 40" fill="none" xmlns="http://www.w3.org/2000/svg">
<path d="M20 3C20.3067 3 20.6133 3.06677 20.8933 3.19364L33.4466 8.52867C34.9133 9.14965 36.0066 10.5986 36 12.348C35.9666 18.9717 33.2466 31.0907 21.76 36.5994C20.6467 37.1335 19.3533 37.1335 18.24 36.5994C6.75336 31.0907 4.03336 18.9717 4.00003 12.348C3.99336 10.5986 5.08669 9.14965 6.55336 8.52867L19.1133 3.19364C19.3867 3.06677 19.6933 3 20 3ZM20 7.46033V32.7066C29.2 28.2396 31.6733 18.3641 31.7333 12.4415L20 7.46033Z" fill="#F5F1ED"/>
</svg>
