<svg width="17" height="16" viewBox="0 0 17 16" fill="none" xmlns="http://www.w3.org/2000/svg">
<path d="M8.33333 8.00007C8.7 8.00007 9.01389 7.86952 9.275 7.6084C9.53611 7.34729 9.66667 7.0334 9.66667 6.66674C9.66667 6.30007 9.53611 5.98618 9.275 5.72507C9.01389 5.46396 8.7 5.3334 8.33333 5.3334C7.96667 5.3334 7.65278 5.46396 7.39167 5.72507C7.13056 5.98618 7 6.30007 7 6.66674C7 7.0334 7.13056 7.34729 7.39167 7.6084C7.65278 7.86952 7.96667 8.00007 8.33333 8.00007ZM8.33333 14.6667C6.54444 13.1445 5.20833 11.7306 4.325 10.4251C3.44167 9.11952 3 7.91118 3 6.80007C3 5.1334 3.53611 3.80563 4.60833 2.81674C5.68056 1.82785 6.92222 1.3334 8.33333 1.3334C9.74444 1.3334 10.9861 1.82785 12.0583 2.81674C13.1306 3.80563 13.6667 5.1334 13.6667 6.80007C13.6667 7.91118 13.225 9.11952 12.3417 10.4251C11.4583 11.7306 10.1222 13.1445 8.33333 14.6667Z" fill="#000E14"/>
</svg>
