<svg width="19" height="19" viewBox="0 0 19 19" fill="none" xmlns="http://www.w3.org/2000/svg">
<path d="M9.33325 7.23311H2.33636C2.36803 6.24534 2.62969 5.2794 3.09976 4.41498C3.56983 3.55055 4.23484 2.81243 5.03992 2.2615C5.21708 2.14735 5.43136 2.10929 5.63597 2.15562C5.84057 2.20196 6.01887 2.32894 6.13192 2.50881L9.33325 7.23311ZM12.8333 6.33898C12.8341 5.8661 13.019 5.41287 13.3474 5.07879C13.6758 4.7447 14.1208 4.55707 14.5848 4.55707H15.459C15.6909 4.55707 15.9133 4.65094 16.0772 4.81802C16.2411 4.98511 16.3333 5.21173 16.3333 5.44803C16.3333 5.68432 16.2411 5.91094 16.0772 6.07803C15.9133 6.24512 15.6909 6.33898 15.459 6.33898H14.5848V8.12407C14.5829 8.83396 14.4233 9.5342 14.1181 10.1723C13.7986 10.8393 13.3462 11.4311 12.7897 11.9099C12.2023 12.4167 11.5284 12.809 10.8017 13.0672C9.28504 13.6082 7.63302 13.6082 6.11636 13.0672C5.38898 12.8104 4.71484 12.418 4.12836 11.9099C3.57253 11.4254 3.12035 10.8297 2.79992 10.1596C2.49464 9.52155 2.3351 8.82129 2.33325 8.11139H12.8333V6.33898ZM4.52036 13.4603C4.78003 13.4603 5.03386 13.5388 5.24976 13.6858C5.46567 13.8328 5.63394 14.0418 5.73331 14.2863C5.83268 14.5308 5.85868 14.7998 5.80803 15.0594C5.75737 15.3189 5.63233 15.5573 5.44872 15.7445C5.26511 15.9316 5.03117 16.059 4.77649 16.1107C4.52182 16.1623 4.25784 16.1358 4.01794 16.0345C3.77804 15.9332 3.573 15.7617 3.42874 15.5417C3.28447 15.3217 3.20747 15.063 3.20747 14.7983C3.20747 14.4435 3.3458 14.1031 3.59201 13.8522C3.83823 13.6013 4.17216 13.4603 4.52036 13.4603ZM11.0848 14.7983C11.0848 14.5336 11.1619 14.2747 11.3063 14.0546C11.4507 13.8345 11.6559 13.663 11.896 13.5619C12.1361 13.4607 12.4002 13.4344 12.655 13.4863C12.9097 13.5381 13.1437 13.6659 13.3272 13.8533C13.5106 14.0408 13.6354 14.2795 13.6857 14.5393C13.736 14.799 13.7096 15.0681 13.6098 15.3126C13.5099 15.557 13.3411 15.7658 13.1248 15.9124C12.9085 16.0591 12.6544 16.137 12.3946 16.1364C12.2223 16.1364 12.0517 16.1017 11.8926 16.0345C11.7335 15.9672 11.589 15.8686 11.4673 15.7443C11.3457 15.62 11.2493 15.4725 11.1836 15.3101C11.118 15.1478 11.0844 14.9739 11.0848 14.7983Z" fill="#000E14"/>
</svg>
