<svg width="17" height="17" viewBox="0 0 17 17" fill="none" xmlns="http://www.w3.org/2000/svg">
<path d="M8.66658 11.697C7.74436 11.697 6.95825 11.372 6.30825 10.722C5.65825 10.072 5.33325 9.28589 5.33325 8.36367C5.33325 7.44145 5.65825 6.65533 6.30825 6.00533C6.95825 5.35533 7.74436 5.03033 8.66658 5.03033C9.58881 5.03033 10.3749 5.35533 11.0249 6.00533C11.6749 6.65533 11.9999 7.44145 11.9999 8.36367C11.9999 9.28589 11.6749 10.072 11.0249 10.722C10.3749 11.372 9.58881 11.697 8.66658 11.697ZM3.99992 9.03033H1.33325V7.697H3.99992V9.03033ZM15.9999 9.03033H13.3333V7.697H15.9999V9.03033ZM7.99992 3.697V1.03033H9.33325V3.697H7.99992ZM7.99992 15.697V13.0303H9.33325V15.697H7.99992ZM4.93325 5.53033L3.24992 3.91367L4.19992 2.93033L5.79992 4.597L4.93325 5.53033ZM13.1333 13.797L11.5166 12.1137L12.3999 11.197L14.0833 12.8137L13.1333 13.797ZM11.4999 4.63033L13.1166 2.947L14.0999 3.897L12.4333 5.497L11.4999 4.63033ZM3.23325 12.8303L4.91658 11.2137L5.83325 12.097L4.21659 13.7803L3.23325 12.8303Z" fill="#F9C553"/>
</svg>
