<svg width="17" height="17" viewBox="0 0 17 17" fill="none" xmlns="http://www.w3.org/2000/svg">
<path d="M2.3335 14.6819V11.8486L11.1335 3.06522C11.2668 2.943 11.4141 2.84855 11.5752 2.78188C11.7363 2.71522 11.9057 2.68188 12.0835 2.68188C12.2613 2.68188 12.4335 2.71522 12.6002 2.78188C12.7668 2.84855 12.9113 2.94855 13.0335 3.08188L13.9502 4.01522C14.0835 4.13744 14.1807 4.28188 14.2418 4.44855C14.3029 4.61522 14.3335 4.78188 14.3335 4.94855C14.3335 5.12633 14.3029 5.29577 14.2418 5.45688C14.1807 5.618 14.0835 5.76522 13.9502 5.89855L5.16683 14.6819H2.3335ZM12.0668 5.88188L13.0002 4.94855L12.0668 4.01522L11.1335 4.94855L12.0668 5.88188Z" fill="#000E14"/>
</svg>
