<svg width="20" height="20" viewBox="0 0 20 20" fill="none" xmlns="http://www.w3.org/2000/svg">
<g clip-path="url(#clip0_182_1825)">
<path d="M10.0033 0C5.82836 0 4.60735 0.0043086 4.37001 0.0239999C3.51325 0.0952365 2.98013 0.230173 2.39931 0.519421C1.9517 0.741755 1.59869 0.999466 1.25029 1.36073C0.6158 2.01955 0.231256 2.83008 0.0920485 3.79355C0.0243722 4.26128 0.00468074 4.35667 0.000681995 6.7458C-0.000852494 7.54218 0.000681995 8.59026 0.000681995 9.99607C0.000681995 14.1687 0.00529299 15.3888 0.0252943 15.6258C0.0945125 16.4597 0.225254 16.9844 0.502127 17.5583C1.03126 18.6568 2.04183 19.4815 3.23238 19.7892C3.64462 19.8954 4.09991 19.9538 4.68442 19.9815C4.93207 19.9923 7.4562 20 9.98188 20C12.5076 20 15.0332 19.9969 15.2747 19.9846C15.9515 19.9528 16.3445 19.9 16.7791 19.7877C17.9773 19.4784 18.9694 18.666 19.5093 17.5521C19.7808 16.992 19.9185 16.4474 19.9808 15.657C19.9943 15.4847 20 12.7372 20 9.99346C20 7.24923 19.9938 4.50684 19.9803 4.33451C19.9172 3.53137 19.7796 2.99133 19.4993 2.42051C19.2694 1.95324 19.014 1.60428 18.6433 1.24749C17.9818 0.615435 17.1727 0.230786 16.2086 0.0916989C15.7414 0.0241512 15.6484 0.00414992 13.258 0H10.0033Z" fill="url(#paint0_radial_182_1825)"/>
<path d="M10.0033 0C5.82836 0 4.60735 0.0043086 4.37001 0.0239999C3.51325 0.0952365 2.98013 0.230173 2.39931 0.519421C1.9517 0.741755 1.59869 0.999466 1.25029 1.36073C0.6158 2.01955 0.231256 2.83008 0.0920485 3.79355C0.0243722 4.26128 0.00468074 4.35667 0.000681995 6.7458C-0.000852494 7.54218 0.000681995 8.59026 0.000681995 9.99607C0.000681995 14.1687 0.00529299 15.3888 0.0252943 15.6258C0.0945125 16.4597 0.225254 16.9844 0.502127 17.5583C1.03126 18.6568 2.04183 19.4815 3.23238 19.7892C3.64462 19.8954 4.09991 19.9538 4.68442 19.9815C4.93207 19.9923 7.4562 20 9.98188 20C12.5076 20 15.0332 19.9969 15.2747 19.9846C15.9515 19.9528 16.3445 19.9 16.7791 19.7877C17.9773 19.4784 18.9694 18.666 19.5093 17.5521C19.7808 16.992 19.9185 16.4474 19.9808 15.657C19.9943 15.4847 20 12.7372 20 9.99346C20 7.24923 19.9938 4.50684 19.9803 4.33451C19.9172 3.53137 19.7796 2.99133 19.4993 2.42051C19.2694 1.95324 19.014 1.60428 18.6433 1.24749C17.9818 0.615435 17.1727 0.230786 16.2086 0.0916989C15.7414 0.0241512 15.6484 0.00414992 13.258 0H10.0033Z" fill="url(#paint1_radial_182_1825)"/>
<path d="M10.0033 0C5.82836 0 4.60735 0.0043086 4.37001 0.0239999C3.51325 0.0952365 2.98013 0.230173 2.39931 0.519421C1.9517 0.741755 1.59869 0.999466 1.25029 1.36073C0.6158 2.01955 0.231256 2.83008 0.0920485 3.79355C0.0243722 4.26128 0.00468074 4.35667 0.000681995 6.7458C-0.000852494 7.54218 0.000681995 8.59026 0.000681995 9.99607C0.000681995 14.1687 0.00529299 15.3888 0.0252943 15.6258C0.0945125 16.4597 0.225254 16.9844 0.502127 17.5583C1.03126 18.6568 2.04183 19.4815 3.23238 19.7892C3.64462 19.8954 4.09991 19.9538 4.68442 19.9815C4.93207 19.9923 7.4562 20 9.98188 20C12.5076 20 15.0332 19.9969 15.2747 19.9846C15.9515 19.9528 16.3445 19.9 16.7791 19.7877C17.9773 19.4784 18.9694 18.666 19.5093 17.5521C19.7808 16.992 19.9185 16.4474 19.9808 15.657C19.9943 15.4847 20 12.7372 20 9.99346C20 7.24923 19.9938 4.50684 19.9803 4.33451C19.9172 3.53137 19.7796 2.99133 19.4993 2.42051C19.2694 1.95324 19.014 1.60428 18.6433 1.24749C17.9818 0.615435 17.1727 0.230786 16.2086 0.0916989C15.7414 0.0241512 15.6484 0.00414992 13.258 0H10.0033Z" fill="url(#paint2_radial_182_1825)"/>
<path d="M10.0033 0C5.82836 0 4.60735 0.0043086 4.37001 0.0239999C3.51325 0.0952365 2.98013 0.230173 2.39931 0.519421C1.9517 0.741755 1.59869 0.999466 1.25029 1.36073C0.6158 2.01955 0.231256 2.83008 0.0920485 3.79355C0.0243722 4.26128 0.00468074 4.35667 0.000681995 6.7458C-0.000852494 7.54218 0.000681995 8.59026 0.000681995 9.99607C0.000681995 14.1687 0.00529299 15.3888 0.0252943 15.6258C0.0945125 16.4597 0.225254 16.9844 0.502127 17.5583C1.03126 18.6568 2.04183 19.4815 3.23238 19.7892C3.64462 19.8954 4.09991 19.9538 4.68442 19.9815C4.93207 19.9923 7.4562 20 9.98188 20C12.5076 20 15.0332 19.9969 15.2747 19.9846C15.9515 19.9528 16.3445 19.9 16.7791 19.7877C17.9773 19.4784 18.9694 18.666 19.5093 17.5521C19.7808 16.992 19.9185 16.4474 19.9808 15.657C19.9943 15.4847 20 12.7372 20 9.99346C20 7.24923 19.9938 4.50684 19.9803 4.33451C19.9172 3.53137 19.7796 2.99133 19.4993 2.42051C19.2694 1.95324 19.014 1.60428 18.6433 1.24749C17.9818 0.615435 17.1727 0.230786 16.2086 0.0916989C15.7414 0.0241512 15.6484 0.00414992 13.258 0H10.0033Z" fill="url(#paint3_radial_182_1825)"/>
<path d="M10.0041 2.56812C7.98462 2.56812 7.73117 2.57694 6.93798 2.61301C6.14634 2.64923 5.60598 2.77447 5.13316 2.95823C4.64408 3.14802 4.2292 3.40189 3.81588 3.81506C3.40225 4.22809 3.14818 4.64265 2.95763 5.13122C2.77327 5.60384 2.64778 6.14395 2.61216 6.93469C2.57668 7.72729 2.56738 7.98071 2.56738 9.99874C2.56738 12.0168 2.57637 12.2693 2.61231 13.0619C2.64872 13.8529 2.77405 14.3929 2.95778 14.8653C3.14787 15.3541 3.40193 15.7686 3.81541 16.1816C4.22859 16.595 4.64346 16.8495 5.13223 17.0393C5.60535 17.223 6.14588 17.3483 6.93736 17.3845C7.73055 17.4205 7.98384 17.4294 10.0032 17.4294C12.0229 17.4294 12.2756 17.4205 13.0688 17.3845C13.8604 17.3483 14.4014 17.223 14.8745 17.0393C15.3634 16.8495 15.7777 16.595 16.1909 16.1816C16.6045 15.7686 16.8586 15.3541 17.0491 14.8655C17.2319 14.3929 17.3574 13.8528 17.3946 13.062C17.4302 12.2694 17.4395 12.0168 17.4395 9.99874C17.4395 7.9807 17.4302 7.72745 17.3946 6.93485C17.3574 6.14379 17.2319 5.60384 17.0491 5.13138C16.8586 4.64265 16.6045 4.22808 16.1909 3.81506C15.7772 3.40174 15.3636 3.14786 14.8741 2.95822C14.4 2.77447 13.8593 2.64923 13.0677 2.61301C12.2745 2.57694 12.022 2.56812 10.0018 2.56812H10.0041ZM9.33706 3.90718C9.53506 3.90687 9.75597 3.90718 10.0041 3.90718C11.9896 3.90718 12.2249 3.9143 13.009 3.9499C13.734 3.98303 14.1275 4.10409 14.3896 4.20579C14.7366 4.34047 14.984 4.50147 15.2442 4.76154C15.5044 5.02162 15.6655 5.26931 15.8006 5.61606C15.9024 5.87768 16.0237 6.27089 16.0567 6.99538C16.0923 7.77869 16.1001 8.01399 16.1001 9.99704C16.1001 11.9801 16.0923 12.2154 16.0567 12.9987C16.0236 13.7232 15.9024 14.1164 15.8006 14.378C15.6659 14.7248 15.5044 14.9717 15.2442 15.2316C14.9839 15.4917 14.7368 15.6527 14.3896 15.7874C14.1278 15.8895 13.734 16.0103 13.009 16.0434C12.2251 16.079 11.9896 16.0867 10.0041 16.0867C8.01854 16.0867 7.78322 16.079 6.99933 16.0434C6.27431 16.01 5.88081 15.8889 5.61853 15.7872C5.27151 15.6525 5.02363 15.4915 4.76337 15.2315C4.50311 14.9714 4.34199 14.7243 4.2069 14.3774C4.10511 14.1158 3.98381 13.7226 3.95082 12.9981C3.91519 12.2148 3.90806 11.9795 3.90806 9.99518C3.90806 8.0109 3.91519 7.77683 3.95082 6.99352C3.98397 6.26903 4.10511 5.87583 4.2069 5.6139C4.34167 5.26714 4.50311 5.01945 4.76337 4.75938C5.02363 4.4993 5.27151 4.33831 5.61853 4.20332C5.88065 4.10114 6.27431 3.9804 6.99933 3.94711C7.68531 3.91615 7.95115 3.90687 9.33707 3.90531L9.33706 3.90718ZM13.9735 5.14097C13.4809 5.14097 13.0812 5.53991 13.0812 6.03233C13.0812 6.52462 13.4809 6.92401 13.9735 6.92401C14.4661 6.92401 14.8658 6.52462 14.8658 6.03233C14.8658 5.54006 14.4661 5.14067 13.9735 5.14067L13.9735 5.14097ZM10.0041 6.1828C7.89523 6.1828 6.18538 7.89138 6.18538 9.99874C6.18538 12.1061 7.89523 13.8139 10.0041 13.8139C12.1131 13.8139 13.8223 12.1061 13.8223 9.99874C13.8223 7.89138 12.1129 6.1828 10.004 6.1828H10.0041ZM10.0041 7.52187C11.373 7.52187 12.4829 8.63074 12.4829 9.99874C12.4829 11.3666 11.373 12.4756 10.0041 12.4756C8.63513 12.4756 7.52544 11.3666 7.52544 9.99874C7.52544 8.63074 8.63513 7.52187 10.0041 7.52187Z" fill="white"/>
</g>
<defs>
<radialGradient id="paint0_radial_182_1825" cx="0" cy="0" r="1" gradientUnits="userSpaceOnUse" gradientTransform="translate(19.3542 9.37425) rotate(164.25) scale(12.7789 9.20656)">
<stop stop-color="#FF005F"/>
<stop offset="1" stop-color="#FC01D8"/>
</radialGradient>
<radialGradient id="paint1_radial_182_1825" cx="0" cy="0" r="1" gradientUnits="userSpaceOnUse" gradientTransform="translate(5.31235 21.5404) rotate(-90) scale(15.9644 16.9379)">
<stop stop-color="#FFCC00"/>
<stop offset="0.1242" stop-color="#FFCC00"/>
<stop offset="0.5672" stop-color="#FE4A05"/>
<stop offset="0.6942" stop-color="#FF0F3F"/>
<stop offset="1" stop-color="#FE0657" stop-opacity="0"/>
</radialGradient>
<radialGradient id="paint2_radial_182_1825" cx="0" cy="0" r="1" gradientUnits="userSpaceOnUse" gradientTransform="translate(10.5054 19.7179) rotate(-59.8703) scale(6.60141 8.59429)">
<stop stop-color="#FFCC00"/>
<stop offset="1" stop-color="#FFCC00" stop-opacity="0"/>
</radialGradient>
<radialGradient id="paint3_radial_182_1825" cx="0" cy="0" r="1" gradientUnits="userSpaceOnUse" gradientTransform="translate(2.71357 0.814394) rotate(164.274) scale(12.6371 4.30546)">
<stop stop-color="#780CFF"/>
<stop offset="1" stop-color="#820BFF" stop-opacity="0"/>
</radialGradient>
<clipPath id="clip0_182_1825">
<rect width="20" height="20" fill="white"/>
</clipPath>
</defs>
</svg>
