<svg width="40" height="41" viewBox="0 0 40 41" fill="none" xmlns="http://www.w3.org/2000/svg">
<path d="M29.6177 15.8466L28.5713 16.8929C29.3139 18.4117 29.7189 20.1331 29.7189 21.9557C29.7189 28.3686 24.5211 33.5664 18.1081 33.5664C11.7627 33.5327 6.53106 28.3348 6.53106 21.922C6.53106 15.5091 11.7289 10.3112 18.1419 10.3112C19.9645 10.3112 21.6521 10.7163 23.171 11.4588L24.2173 10.4125V9.12993C22.3609 8.25237 20.302 7.74609 18.1419 7.74609C10.3451 7.74609 3.99963 14.0915 3.99963 21.8882C3.99963 29.6849 10.3451 36.0303 18.1419 36.0303C25.9387 36.0303 32.2841 29.6849 32.2841 21.8882C32.2841 19.7281 31.7778 17.6692 30.9002 15.8128H29.6177V15.8466Z" fill="#F26822"/>
<path d="M18.1437 15.5425C18.4474 15.5425 18.7512 15.5762 19.055 15.61L21.1476 13.5173C20.2025 13.1461 19.2237 12.9773 18.1437 12.9773C13.2158 13.011 9.23303 16.9938 9.23303 21.9216C9.23303 26.8494 13.2158 30.8659 18.1774 30.8659C23.1052 30.8659 27.1218 26.8494 27.1218 21.9216C27.1218 20.8753 26.9193 19.8627 26.5817 18.9177L24.4891 21.0103C24.5566 21.314 24.5566 21.6178 24.5566 21.9216C24.5566 25.4318 21.6876 28.3007 18.1774 28.3007C14.6334 28.3007 11.7645 25.4318 11.7645 21.9216C11.7645 18.4114 14.6334 15.5425 18.1437 15.5425Z" fill="#F26822"/>
<path d="M35.9962 8.79303C35.8612 8.42176 35.4899 8.21925 35.1186 8.21925H31.8784V4.9453C31.8784 4.57403 31.6422 4.20276 31.3046 4.06775C30.9334 3.93274 30.5283 4.00024 30.2583 4.27026L27.0518 7.4767C26.8831 7.64546 26.7818 7.88173 26.7818 8.15175V11.4932L19.6938 18.5474C19.2213 18.3111 18.6813 18.1761 18.1412 18.1761C16.0823 18.1761 14.4285 19.83 14.4285 21.8888C14.4285 23.9477 16.0823 25.6016 18.1412 25.6016C20.2001 25.6016 21.854 23.9477 21.854 21.8888C21.854 21.315 21.719 20.8088 21.4827 20.3362L28.5707 13.2821H31.9122C32.1484 13.2821 32.4185 13.1808 32.5872 13.012L35.7937 9.8056C36.0637 9.53558 36.1312 9.13055 35.9962 8.79303Z" fill="#F26822"/>
</svg>
