<svg width="16" height="17" viewBox="0 0 16 17" fill="none" xmlns="http://www.w3.org/2000/svg">
<g clip-path="url(#clip0_1_1694)">
<path d="M4.97154 2.59786C1.67183 4.50295 0.428731 8.52017 2.19078 11.5721C3.95284 14.6241 8.0534 15.5562 11.3531 13.6511C12.9722 12.7163 14.0944 11.2723 14.6127 9.6835C14.6765 9.48547 14.603 9.27791 14.4292 9.1743C14.2554 9.0707 14.0211 9.09078 13.8539 9.22683C13.6163 9.41994 13.3619 9.59641 13.0867 9.75529C10.4977 11.2501 7.27516 10.5183 5.89059 8.12019C4.95329 6.49675 5.09894 4.5277 6.09284 2.9604C6.20596 2.77995 6.18908 2.55942 6.05214 2.41479C5.9152 2.27016 5.68758 2.2338 5.49201 2.32698C5.31656 2.41182 5.14396 2.5016 4.97297 2.60033L4.97154 2.59786Z" fill="#000E14"/>
<path d="M9.35883 2.77797C9.40696 2.25972 10.0738 2.08104 10.3746 2.50578L11.1153 3.55159C11.2099 3.68513 11.3581 3.77069 11.521 3.78582L12.797 3.90433C13.3152 3.95246 13.4939 4.61934 13.0692 4.92015L12.0234 5.66079C11.8898 5.75536 11.8043 5.90356 11.7892 6.06649L11.6706 7.34251C11.6225 7.86075 10.9556 8.03944 10.6548 7.61469L9.91418 6.56889C9.81961 6.43535 9.67142 6.34979 9.50848 6.33466L8.23247 6.21614C7.71422 6.16801 7.53553 5.50113 7.96028 5.20033L9.00609 4.45969C9.13963 4.36511 9.22518 4.21692 9.24032 4.05399L9.35883 2.77797Z" fill="#000E14"/>
</g>
<defs>
<clipPath id="clip0_1_1694">
<rect width="16" height="16" fill="white" transform="translate(0 0.545532)"/>
</clipPath>
</defs>
</svg>
