<svg width="40" height="40" viewBox="0 0 40 40" fill="none" xmlns="http://www.w3.org/2000/svg">
<path d="M23.0566 8.15737C22.4053 8.44195 21.9805 9.08366 21.9805 9.78676V13.358H15.6367C10.1313 13.358 5.66797 17.7551 5.66797 23.179C5.66797 29.5013 10.2842 32.3248 11.3434 32.894C11.485 32.9721 11.6436 33 11.8021 33C12.4195 33 12.918 32.5034 12.918 31.9007C12.918 31.4822 12.6744 31.0972 12.3629 30.8126C11.8305 30.316 11.1055 29.3395 11.1055 27.6431C11.1055 24.6856 13.541 22.2862 16.543 22.2862H21.9805V25.8575C21.9805 26.5606 22.3996 27.2023 23.0566 27.4869C23.7137 27.7714 24.4727 27.6543 25.0051 27.1855L34.0676 19.1502C34.4471 18.8098 34.668 18.3299 34.668 17.8221C34.668 17.3143 34.4527 16.8344 34.0676 16.494L25.0051 8.45869C24.4727 7.98438 23.708 7.8672 23.0566 8.15737Z" fill="#F5F1ED"/>
</svg>
